<svg width="20" height="11" viewBox="0 0 20 11" fill="none" xmlns="http://www.w3.org/2000/svg">
<path d="M9.85275 10.4632C9.47767 10.46 9.11757 10.3337 8.84348 10.1092L0.418054 2.6732C0.150379 2.43848 0 2.12014 0 1.7882C0 1.45626 0.150379 1.13792 0.418054 0.9032C0.685729 0.668483 1.04878 0.536621 1.42733 0.536621C1.80588 0.536621 2.16892 0.668483 2.4366 0.9032L9.84933 7.4032L17.3191 0.9032C17.5868 0.668483 17.9498 0.536621 18.3283 0.536621C18.7069 0.536621 19.0699 0.668483 19.3376 0.9032C19.6053 1.13792 19.7557 1.45626 19.7557 1.7882C19.7557 2.12014 19.6053 2.43848 19.3376 2.6732L10.8643 10.1052C10.7313 10.2209 10.5733 10.3121 10.3997 10.3736C10.226 10.435 10.04 10.4655 9.85275 10.4632Z" fill="#BFCDD5"/>
</svg>
