<svg width="31" height="32" viewBox="0 0 31 32" fill="none" xmlns="http://www.w3.org/2000/svg">
<path d="M12.1625 0.340177C14.3629 -0.112312 16.635 -0.113401 18.8359 0.336977C18.9825 1.28603 19.3453 2.19048 19.8974 2.98309C20.4496 3.77571 21.1767 4.4361 22.0249 4.91519C22.8725 5.39593 23.8196 5.68313 24.7959 5.75541C25.7722 5.82769 26.7526 5.68321 27.6641 5.3327C29.1621 6.97724 30.2967 8.90799 30.9967 11.0035C30.2322 11.6027 29.6153 12.3631 29.1917 13.2283C28.768 14.0934 28.5487 15.0411 28.5499 16.0008C28.5499 18.0228 29.5058 19.8256 31 20.9981C30.2958 23.0919 29.1598 25.0211 27.6625 26.6657C26.7512 26.3154 25.7711 26.1711 24.7951 26.2434C23.8191 26.3157 22.8723 26.6027 22.0249 27.0832C21.1774 27.5621 20.4508 28.2221 19.899 29.0141C19.3472 29.8062 18.9844 30.7099 18.8375 31.6582C16.6373 32.1118 14.3652 32.1139 12.1641 31.6646C12.0182 30.7147 11.6557 29.8093 11.1035 29.0158C10.5514 28.2223 9.82384 27.5612 8.97506 27.0816C8.12741 26.6011 7.18021 26.3142 6.2039 26.2422C5.22758 26.1702 4.24728 26.3149 3.33588 26.6657C1.83775 25.0207 0.703071 23.0894 0.00326262 20.9933C0.767322 20.3945 1.38404 19.6345 1.80763 18.77C2.23122 17.9054 2.45082 16.9584 2.45012 15.9992C2.45092 15.0392 2.23105 14.0914 1.80687 13.2262C1.38268 12.361 0.765088 11.6008 0 11.0019C0.704153 8.90812 1.84023 6.9789 3.33751 5.3343C4.2488 5.68456 5.22887 5.82891 6.20488 5.75663C7.18089 5.68434 8.12774 5.39729 8.97506 4.91679C9.82256 4.43785 10.5492 3.77787 11.101 2.98586C11.6528 2.19384 12.0156 1.29012 12.1625 0.341776V0.340177ZM15.5 20.7998C16.7979 20.7998 18.0426 20.2942 18.9604 19.3942C19.8781 18.4942 20.3937 17.2736 20.3937 16.0008C20.3937 14.728 19.8781 13.5074 18.9604 12.6074C18.0426 11.7074 16.7979 11.2018 15.5 11.2018C14.2021 11.2018 12.9574 11.7074 12.0396 12.6074C11.1219 13.5074 10.6063 14.728 10.6063 16.0008C10.6063 17.2736 11.1219 18.4942 12.0396 19.3942C12.9574 20.2942 14.2021 20.7998 15.5 20.7998Z" fill="black"/>
</svg>
