<svg width="30" height="33" viewBox="0 0 30 33" fill="none" xmlns="http://www.w3.org/2000/svg">
<path d="M8.6665 15.1464L15.8532 12.0664L22.0132 15.1464L28.4842 12.3734C28.5624 12.3399 28.6476 12.3263 28.7322 12.3339C28.8169 12.3415 28.8983 12.3699 28.9693 12.4168C29.0402 12.4636 29.0984 12.5273 29.1386 12.6021C29.1789 12.677 29.1999 12.7607 29.1998 12.8456V29.5197L22.0132 32.5997L15.8532 29.5197L9.38209 32.2928C9.30398 32.3263 9.21877 32.3398 9.13412 32.3322C9.04946 32.3247 8.96801 32.2962 8.89708 32.2494C8.82615 32.2026 8.76794 32.1389 8.7277 32.064C8.68746 31.9892 8.66643 31.9055 8.6665 31.8205V15.1464ZM23.0398 29.9253L27.1465 28.1656V15.1803L23.0398 16.94V29.9253ZM20.9865 29.7908V16.9287L16.8798 14.8754V27.7374L20.9865 29.7908ZM14.8265 27.7262V14.7409L10.7198 16.5006V29.4859L14.8265 27.7262Z" fill="white"/>
<g clip-path="url(#clip0_1413_873)">
<path d="M13.4671 12.7337L8.8002 17.4006L4.13327 12.7337C3.21025 11.8106 2.58167 10.6346 2.32701 9.35436C2.07235 8.07409 2.20306 6.74706 2.7026 5.54107C3.20214 4.33508 4.04808 3.30431 5.13344 2.57909C6.21881 1.85388 7.49484 1.4668 8.8002 1.4668C10.1056 1.4668 11.3816 1.85388 12.467 2.57909C13.5523 3.30431 14.3983 4.33508 14.8978 5.54107C15.3973 6.74706 15.528 8.07409 15.2734 9.35436C15.0187 10.6346 14.3902 11.8106 13.4671 12.7337ZM8.8002 11.0001C9.57817 11.0001 10.3243 10.691 10.8744 10.1409C11.4245 9.59081 11.7335 8.84471 11.7335 8.06674C11.7335 7.28877 11.4245 6.54267 10.8744 5.99256C10.3243 5.44245 9.57817 5.13341 8.8002 5.13341C8.02223 5.13341 7.27612 5.44245 6.72602 5.99256C6.17591 6.54267 5.86686 7.28877 5.86686 8.06674C5.86686 8.84471 6.17591 9.59081 6.72602 10.1409C7.27612 10.691 8.02223 11.0001 8.8002 11.0001ZM8.8002 9.53341C8.41121 9.53341 8.03816 9.37888 7.76311 9.10383C7.48806 8.82878 7.33353 8.45572 7.33353 8.06674C7.33353 7.67776 7.48806 7.3047 7.76311 7.02965C8.03816 6.7546 8.41121 6.60007 8.8002 6.60007C9.18918 6.60007 9.56223 6.7546 9.83729 7.02965C10.1123 7.3047 10.2669 7.67776 10.2669 8.06674C10.2669 8.45572 10.1123 8.82878 9.83729 9.10383C9.56223 9.37888 9.18918 9.53341 8.8002 9.53341Z" fill="white"/>
</g>
<defs>
<clipPath id="clip0_1413_873">
<rect width="17.6" height="17.6" fill="white"/>
</clipPath>
</defs>
</svg>
