<svg width="12" height="15" viewBox="0 0 12 15" fill="none" xmlns="http://www.w3.org/2000/svg">
<path d="M10.2427 10.3035L6 14.5714L1.75734 10.3035C0.918228 9.45942 0.346791 8.38396 0.115286 7.21316C-0.11622 6.04235 0.00260457 4.82878 0.456732 3.72591C0.91086 2.62304 1.67989 1.6804 2.66659 1.01719C3.65328 0.353985 4.81332 0 6 0C7.18668 0 8.34672 0.353985 9.33341 1.01719C10.3201 1.6804 11.0891 2.62304 11.5433 3.72591C11.9974 4.82878 12.1162 6.04235 11.8847 7.21316C11.6532 8.38396 11.0818 9.45942 10.2427 10.3035ZM6 7.37689C6.35362 7.37689 6.69276 7.23558 6.94281 6.98405C7.19286 6.73251 7.33333 6.39136 7.33333 6.03563C7.33333 5.67991 7.19286 5.33875 6.94281 5.08721C6.69276 4.83568 6.35362 4.69437 6 4.69437C5.64638 4.69437 5.30724 4.83568 5.05719 5.08721C4.80714 5.33875 4.66667 5.67991 4.66667 6.03563C4.66667 6.39136 4.80714 6.73251 5.05719 6.98405C5.30724 7.23558 5.64638 7.37689 6 7.37689Z" fill="#646464"/>
</svg>
