<svg width="25" height="24" viewBox="0 0 25 24" fill="none" xmlns="http://www.w3.org/2000/svg">
<path d="M6.94151 22.0868L0.733412 23.4667L2.11325 17.2586C1.20454 15.5588 0.73051 13.6607 0.733412 11.7333C0.733412 5.25301 5.98642 0 12.4667 0C18.9471 0 24.2001 5.25301 24.2001 11.7333C24.2001 18.2136 18.9471 23.4667 12.4667 23.4667C10.5394 23.4696 8.64122 22.9955 6.94151 22.0868ZM6.60008 11.7333C6.60008 13.2893 7.21817 14.7815 8.31838 15.8817C9.41859 16.9819 10.9108 17.6 12.4667 17.6C14.0227 17.6 15.5149 16.9819 16.6151 15.8817C17.7153 14.7815 18.3334 13.2893 18.3334 11.7333H15.9867C15.9867 12.6669 15.6159 13.5622 14.9558 14.2223C14.2956 14.8825 13.4003 15.2533 12.4667 15.2533C11.5332 15.2533 10.6379 14.8825 9.97772 14.2223C9.3176 13.5622 8.94674 12.6669 8.94674 11.7333H6.60008Z" fill="#E6E6E6"/>
</svg>
