<svg width="19" height="23" viewBox="0 0 19 23" fill="none" xmlns="http://www.w3.org/2000/svg">
<path d="M18.3334 22.7333H0.733398V20.5683C0.733398 19.1327 1.31286 17.756 2.34431 16.7409C3.37576 15.7258 4.77471 15.1556 6.2334 15.1556H12.8334C14.2921 15.1556 15.691 15.7258 16.7225 16.7409C17.7539 17.756 18.3334 19.1327 18.3334 20.5683V22.7333ZM9.5334 12.9905C8.66667 12.9905 7.80844 12.8225 7.00769 12.4961C6.20694 12.1696 5.47936 11.6912 4.86649 11.0881C4.25363 10.4849 3.76747 9.7689 3.43579 8.98086C3.10411 8.19282 2.9334 7.3482 2.9334 6.49524C2.9334 5.64227 3.10411 4.79766 3.43579 4.00962C3.76747 3.22158 4.25363 2.50555 4.86649 1.90241C5.47936 1.29927 6.20694 0.820837 7.00769 0.49442C7.80844 0.168004 8.66667 -1.27102e-08 9.5334 0C11.2838 2.56694e-08 12.9626 0.684318 14.2003 1.90241C15.438 3.1205 16.1334 4.77259 16.1334 6.49524C16.1334 8.21788 15.438 9.86997 14.2003 11.0881C12.9626 12.3062 11.2838 12.9905 9.5334 12.9905V12.9905Z" fill="#E6E6E6"/>
</svg>
