<svg width="14" height="16" viewBox="0 0 14 16" fill="none" xmlns="http://www.w3.org/2000/svg">
<path d="M6.99986 5.92253e-09C8.33242 -5.55776e-05 9.63731 0.391133 10.7612 1.12759C11.885 1.86405 12.7812 2.91518 13.3443 4.15745C13.9074 5.39972 14.1141 6.7815 13.94 8.14042C13.766 9.49934 13.2184 10.7789 12.3617 11.8288C13.3378 12.4928 13.9429 13.3408 13.9958 14.268L13.9997 14.4L6.99986 16L7.75623e-06 14.4L0.00389665 14.268C0.0560067 13.34 0.661883 12.492 1.6372 11.828C0.577497 10.5325 -0.00244626 8.89308 7.75623e-06 7.2C7.75623e-06 5.29044 0.73749 3.45909 2.05022 2.10883C3.36294 0.758569 5.14338 5.92253e-09 6.99986 5.92253e-09ZM6.99986 8.8C5.92655 8.8 5.05546 9.3376 5.05546 10C5.05546 10.6624 5.92655 11.2 6.99986 11.2C8.07317 11.2 8.94426 10.6624 8.94426 10C8.94426 9.3376 8.07317 8.8 6.99986 8.8ZM4.66658 4.8C3.80715 4.8 3.11105 5.3376 3.11105 6C3.11105 6.6624 3.80715 7.2 4.66658 7.2C5.526 7.2 6.2221 6.6624 6.2221 6C6.2221 5.3376 5.526 4.8 4.66658 4.8ZM9.33314 4.8C8.47372 4.8 7.77762 5.3376 7.77762 6C7.77762 6.6624 8.47372 7.2 9.33314 7.2C10.1926 7.2 10.8887 6.6624 10.8887 6C10.8887 5.3376 10.1926 4.8 9.33314 4.8Z" fill="#6D6D6D"/>
</svg>
