<svg width="17" height="15" viewBox="0 0 17 15" fill="none" xmlns="http://www.w3.org/2000/svg">
<path d="M1.7 13.4211H15.3V9.47368H17V14.2105C17 14.4199 16.9104 14.6207 16.751 14.7688C16.5916 14.9168 16.3754 15 16.15 15H0.85C0.624566 15 0.408365 14.9168 0.248959 14.7688C0.0895533 14.6207 0 14.4199 0 14.2105V9.47368H1.7V13.4211ZM8.5 6.31579H5.95C5.1451 6.31527 4.35154 6.49193 3.63435 6.8313C2.91717 7.17067 2.2968 7.66308 1.8241 8.26816C2.12583 6.82932 2.95683 5.5327 4.17476 4.6004C5.39268 3.6681 6.92174 3.15815 8.5 3.15789V0L15.3 4.73684L8.5 9.47368V6.31579Z" fill="black" fill-opacity="0.5"/>
</svg>
