<svg width="18" height="18" viewBox="0 0 18 18" fill="none" xmlns="http://www.w3.org/2000/svg">
<path d="M3.457 15.5738L12.021 7.00979L10.607 5.59579L2.043 14.1598L3.457 15.5738ZM9.192 4.18179L7.778 2.76779L9.192 1.35379L10.96 3.12079L13.789 0.292787C13.9765 0.105316 14.2308 0 14.496 0C14.7612 0 15.0155 0.105316 15.203 0.292787L17.324 2.41379C17.5115 2.60131 17.6168 2.85562 17.6168 3.12079C17.6168 3.38595 17.5115 3.64026 17.324 3.82779L14.496 6.65679L16.263 8.42479L14.849 9.83879L13.435 8.42479L4.243 17.6168H0V13.3738L9.192 4.18179Z" fill="#646464"/>
</svg>
